<?xml version="1.0" standalone="no"?><!DOCTYPE svg PUBLIC "-//W3C//DTD SVG 1.1//EN" "http://www.w3.org/Graphics/SVG/1.1/DTD/svg11.dtd"><svg t="1751603837484" class="icon" viewBox="0 0 1024 1024" version="1.1" xmlns="http://www.w3.org/2000/svg" p-id="11440" xmlns:xlink="http://www.w3.org/1999/xlink" width="200" height="200"><path d="M587.178667 198.883556c4.551111 7.395556 6.940444 15.900444 6.940444 24.576v555.150222a46.933333 46.933333 0 0 1-69.233778 41.272889l-247.409777-133.745778H147.911111a62.577778 62.577778 0 0 1-62.577778-62.577778v-231.850667a62.577778 62.577778 0 0 1 62.577778-62.577777h137.955556l236.743111-145.635556a46.933333 46.933333 0 0 1 64.568889 15.36zM785.066667 684.174222l4.039111 2.275556 80.327111 49.578666 2.844444 1.905778c19.370667 14.165333 23.608889 41.358222 9.415111 60.757334-14.762667 20.167111-41.756444 26.453333-63.715555 15.502222l-4.067556-2.275556-80.327111-49.550222a43.463111 43.463111 0 0 1-12.231111-62.663111 50.915556 50.915556 0 0 1 59.534222-17.351111l4.181334 1.820444z m135.367111-233.415111a46.677333 46.677333 0 0 1 4.010666 93.212445l-4.010666 0.170666h-97.422222a46.677333 46.677333 0 0 1-4.039112-93.212444l4.039112-0.170667h97.422222z m-38.741334-259.868444c14.506667 19.825778 10.183111 47.672889-9.671111 62.179555l-1.991111 1.422222-81.493333 52.935112a49.692444 49.692444 0 0 1-67.214222-12.316445 44.515556 44.515556 0 0 1 9.671111-62.208l1.991111-1.393778 81.521778-52.963555a49.692444 49.692444 0 0 1 67.185777 12.344889z" fill="#FE8233" p-id="11441"></path></svg>