<?xml version="1.0" standalone="no"?><!DOCTYPE svg PUBLIC "-//W3C//DTD SVG 1.1//EN" "http://www.w3.org/Graphics/SVG/1.1/DTD/svg11.dtd"><svg t="1751603748798" class="icon" viewBox="0 0 1024 1024" version="1.1" xmlns="http://www.w3.org/2000/svg" p-id="5777" xmlns:xlink="http://www.w3.org/1999/xlink" width="200" height="200"><path d="M512.1 80.6c117.6 0 213.2 95.7 213.2 213.3 0 117.6-95.6 213.3-213.2 213.3s-213.4-95.7-213.4-213.3c0-117.6 95.8-213.3 213.4-213.3z m296.7 563.7h-38.4c-14.7 0-27.1 10-28.6 23l-0.2 2.6v13.9h95.8v-13.9c0-13.3-11.2-24.2-25.8-25.5l-2.8-0.1z m0-25.6l3.6 0.1c28.9 1.6 52 22.2 53.7 47.7l0.1 3.4v13.9h8.5c45.5 0 82.9 33.7 85.2 75.6l0.1 2.9v124.9c-9.2 32.9-43.6 50.7-81.2 52.5l-4.4 0.1H703.9c-39.5 0-76.7-28.8-85.3-59.7V762.3h0.6c0.6-41.9 36.4-76.3 80.9-78.4l4.3-0.1h8.5v-13.9c0-27 23.8-49.3 53.9-51.1l3.8-0.1h38.2z m-197.5-87c55.5 0 107.7 14.4 153.1 39.7l-4.2 0.4-5.4 0.7c-28.4 4.5-52.9 19.6-68.1 41.2l-2 2.9-5.7 1.1c-49.6 10.3-92 54.4-103 102.8v149.3l0.1 5.8 0.4 4.9c2.7 30 15.5 56.9 34.8 77.3-85-0.4-175 1.9-249.5 0.4-57.5-1.1-111.8-3.7-163-7.7-67.7-9.6-111-31.2-113.3-79.4l-0.1-4.1v-18.9c0-172.2 138.1-312.9 309.2-316.5l6.7-0.1h210z" fill="#00B478" p-id="5778"></path></svg>