<?xml version="1.0" standalone="no"?><!DOCTYPE svg PUBLIC "-//W3C//DTD SVG 1.1//EN" "http://www.w3.org/Graphics/SVG/1.1/DTD/svg11.dtd"><svg t="1751604057609" class="icon" viewBox="0 0 1024 1024" version="1.1" xmlns="http://www.w3.org/2000/svg" p-id="23240" xmlns:xlink="http://www.w3.org/1999/xlink" width="200" height="200"><path d="M512 512m-512 0a512 512 0 1 0 1024 0 512 512 0 1 0-1024 0Z" fill="#FFD8D3" p-id="23241"></path><path d="M507.570087 244.869565a262.477913 262.477913 0 1 0 185.833739 76.866783 262.811826 262.811826 0 0 0-185.833739-76.866783z m87.106783 282.134261a21.949217 21.949217 0 0 1-26.713044-11.130435c-4.719304-10.529391 2.114783-17.808696 9.46087-24.175304a56.05287 56.05287 0 0 1 12.065391-7.368348c17.318957-9.97287 32.033391-23.106783 23.106783-45.211826a39.646609 39.646609 0 0 0-46.747827-23.106783 37.264696 37.264696 0 0 0-35.728695 40.648348c0 36.262957 1.046261 73.060174-0.489739 109.278609a87.685565 87.685565 0 0 1-87.774609 75.686956 85.659826 85.659826 0 0 1-80.896-92.449391c1.046261-25.243826 23.663304-45.723826 54.628174-59.392 13.133913-5.765565 25.733565-5.765565 33.101913 8.904348 8.414609 17.363478-5.765565 23.106783-17.318957 28.382609-23.106783 9.99513-34.682435 26.267826-23.663304 49.93113a40.626087 40.626087 0 0 0 54.628174 18.899478 37.843478 37.843478 0 0 0 25.733565-41.516521q-0.77913-49.39687 0-98.793739a76.688696 76.688696 0 0 1 55.206957-77.734957 92.16 92.16 0 0 1 96.678956 25.199304 80.428522 80.428522 0 0 1-45.278608 123.948522z" fill="#F55C2E" p-id="23242"></path></svg>