<?xml version="1.0" standalone="no"?><!DOCTYPE svg PUBLIC "-//W3C//DTD SVG 1.1//EN" "http://www.w3.org/Graphics/SVG/1.1/DTD/svg11.dtd"><svg t="1751603775745" class="icon" viewBox="0 0 1024 1024" version="1.1" xmlns="http://www.w3.org/2000/svg" p-id="7619" xmlns:xlink="http://www.w3.org/1999/xlink" width="200" height="200"><path d="M511.84 96c53.76 0 126.304 7.04 217.728 21.184a164.256 164.256 0 0 1 138.208 144.48c7.616 69.472 11.616 130.656 12.032 183.52l0.064 16.192c-0.064 66.88-5.824 138.368-17.28 214.496a164.256 164.256 0 0 1-61.472 105.152C675.36 879.04 578.88 928 511.84 928c-67.04 0-163.456-48.96-289.216-146.944a164.256 164.256 0 0 1-61.472-105.184c-11.52-76.704-17.28-148.672-17.28-215.872 0-56.64 4.064-122.72 12.256-198.208a164.256 164.256 0 0 1 138.24-144.64C385.664 103.04 458.144 96 511.84 96z" fill="#FF7F34" p-id="7620"></path><path d="M549.888 271.904l-175.712 241.6a19.2 19.2 0 0 0 15.52 30.496h73.92a12.8 12.8 0 0 1 12.416 15.904l-36.064 144.224a19.2 19.2 0 0 0 34.144 15.968l175.712-241.6a19.2 19.2 0 0 0-15.52-30.496h-73.92a12.8 12.8 0 0 1-12.416-15.904l36.064-144.224a19.2 19.2 0 0 0-34.144-15.968z" fill="#FFFFFF" p-id="7621"></path></svg>