<?xml version="1.0" standalone="no"?><!DOCTYPE svg PUBLIC "-//W3C//DTD SVG 1.1//EN" "http://www.w3.org/Graphics/SVG/1.1/DTD/svg11.dtd"><svg t="1751604020385" class="icon" viewBox="0 0 1024 1024" version="1.1" xmlns="http://www.w3.org/2000/svg" p-id="19080" xmlns:xlink="http://www.w3.org/1999/xlink" width="200" height="200"><path d="M826.3808 468.9024c-2.4704-13.4656-15.7696-27.2128-29.5552-30.2592l-10.3168-2.304c-24.2176-7.168-45.6832-22.8608-59.3664-45.952a98.5216 98.5216 0 0 1-10.9312-73.7792l3.2512-9.4848c4.0704-13.12-1.2672-31.2192-12.0704-40.2304 0 0-9.6896-8.0128-37.0048-23.4624-27.328-15.3088-39.1168-19.5712-39.1168-19.5712-13.312-4.736-31.9232-0.2432-41.6256 9.856l-7.1936 7.5264c-18.3936 17.024-43.0848 27.3408-70.4128 27.3408s-52.288-10.4448-70.6688-27.584l-6.9376-7.2832c-9.5744-10.0992-28.3136-14.592-41.6128-9.856 0 0-11.9296 4.2624-39.232 19.5712-27.328 15.5648-36.8896 23.5776-36.8896 23.5776-10.816 8.8832-16.1536 26.8672-12.0448 40.1024l2.9824 9.6a98.7776 98.7776 0 0 1-10.9312 73.6512c-13.6576 23.232-35.392 39.0272-59.7376 46.0672l-9.9328 2.1888c-13.6448 3.0464-27.072 16.6528-29.5552 30.2592 0 0-2.24 12.1728-2.24 43.0464 0 30.8608 2.24 43.008 2.24 43.008 2.4704 13.632 15.7696 27.2512 29.5552 30.272l9.6896 2.1888c24.3456 7.0656 46.1952 22.848 59.8656 46.1824a98.56 98.56 0 0 1 10.9312 73.792l-2.8672 9.3312c-4.0832 13.1456 1.2544 31.2448 12.0576 40.256 0 0 9.6768 8.0256 37.0048 23.4624 27.328 15.4496 39.1296 19.5712 39.1296 19.5712 13.2992 4.7488 31.9104 0.2432 41.6128-9.856l6.8096-7.168a103.68 103.68 0 0 1 70.7968-27.5968c27.4304 0 52.3904 10.5728 70.7968 27.6992l6.7968 7.168c9.6 10.112 28.3136 14.6048 41.6256 9.856 0 0 11.9168-4.224 39.2448-19.5328 27.328-15.4496 36.864-23.4752 36.864-23.4752 10.8416-8.8576 16.1536-26.9824 12.0704-40.2304l-2.9952-9.7408a98.1504 98.1504 0 0 1 10.9312-73.408 102.1184 102.1184 0 0 1 59.8528-46.1824l9.7024-2.1888c13.632-3.0336 27.0336-16.6656 29.5808-30.272 0 0 2.2144-12.1344 2.2144-43.0208-0.1536-30.9632-2.368-43.136-2.368-43.136m-314.3168 166.656c-69.6576 0-126.2976-55.296-126.2976-123.6096 0-68.1856 56.512-123.4944 126.2976-123.4944 69.6576 0 126.2848 55.3088 126.2848 123.6224-0.1024 68.1856-56.6272 123.4816-126.2848 123.4816m0 0" fill="#A8A8A8" p-id="19081"></path></svg>