<?xml version="1.0" standalone="no"?><!DOCTYPE svg PUBLIC "-//W3C//DTD SVG 1.1//EN" "http://www.w3.org/Graphics/SVG/1.1/DTD/svg11.dtd"><svg t="1751604038452" class="icon" viewBox="0 0 1055 1024" version="1.1" xmlns="http://www.w3.org/2000/svg" p-id="20961" xmlns:xlink="http://www.w3.org/1999/xlink" width="206.0546875" height="200"><path d="M931.927193 910.280884l84.377408-146.132583a62.427123 62.427123 0 0 0 0-63.09907l-84.377408-146.164581a63.035075 63.035075 0 0 0-54.619733-31.549536h-168.754816a63.003078 63.003078 0 0 0-54.587735 31.549536L569.555503 701.049231a62.811093 62.811093 0 0 0 0 63.09907l84.377408 146.132583a63.035075 63.035075 0 0 0 54.587736 31.581533h168.754816a62.939083 62.939083 0 0 0 54.619733-31.581533z m-213.103351-120.758565a93.432701 93.432701 0 1 1 148.404406-113.527131 93.432701 93.432701 0 0 1-148.404406 113.527131zM95.352551 412.783751v316.903242h-31.773518a63.579033 63.579033 0 0 0 0 127.126068h462.84384l-46.33238-80.12174a87.865136 87.865136 0 0 1 0-88.185111l118.390751-205.231966a87.993126 87.993126 0 0 1 76.53802-44.316538h55.515663v-26.173955c0-153.556003-109.207468-281.769987-254.028154-311.111694V63.627029a63.579033 63.579033 0 0 0-127.126068 0v38.077025c-145.012671 29.533693-254.028154 157.523693-254.028154 311.079697z m384.865932 583.346426c17.822608-17.822608 27.837825-42.044715 27.837825-67.258745H317.799172a95.128568 95.128568 0 0 0 162.387313 67.258745z" fill="#6C6CEA" p-id="20962"></path><path d="M875.13163 523.335114a589.169971 589.169971 0 0 1-66.778783 117.238841 93.432701 93.432701 0 0 0-106.647668 111.767268 590.353879 590.353879 0 0 1-100.952113 65.786861l-31.165565-53.979783a62.811093 62.811093 0 0 1 0-63.09907l84.377408-146.164581a62.97108 62.97108 0 0 1 54.619733-31.549536h166.578986zM506.264448 856.813061c5.663558-1.759863 11.327115-3.615718 16.958675-5.535567l-43.13263-74.586173a87.865136 87.865136 0 0 1 0-88.185111l118.390751-205.231966a87.993126 87.993126 0 0 1 76.53802-44.316538h55.483665v-26.173955c0-153.524006-109.207468-281.769987-253.996156-311.079697v-38.077025a63.579033 63.579033 0 0 0-127.126068 0v38.077025c-145.044668 29.533693-254.060152 157.555691-254.060152 311.079697v316.903242h-31.74152a63.579033 63.579033 0 0 0-62.7151 54.971706 589.169971 589.169971 0 0 0 151.380173 72.154362h354.020342z" fill="#757BF2" p-id="20963"></path><path d="M667.787829 223.422545a443.26137 443.26137 0 0 1-128.725943 276.746379A444.957238 444.957238 0 0 1 95.352551 611.488227v-198.704476c0-153.524006 108.983486-281.578002 253.996156-311.111694V63.627029a63.547035 63.547035 0 1 1 127.126068 0v38.077025a317.415202 317.415202 0 0 1 191.345052 121.686494z" fill="#8486F8" p-id="20964"></path><path d="M405.152347 0.559956a296.616827 296.616827 0 0 1-75.962065 289.737365 296.040872 296.040872 0 0 1-231.789891 86.073275c15.646778-137.013296 118.550738-247.500664 251.948316-274.666542v-38.077025A63.547035 63.547035 0 0 1 405.152347 0.559956z" fill="#8D92F8" p-id="20965"></path></svg>