<svg t="1747704266982" class="icon" viewBox="0 0 1024 1024" version="1.1" xmlns="http://www.w3.org/2000/svg" p-id="4010" width="200" height="200"><path d="M1.728 512a510.272 510.272 0 1 0 1020.544 0A510.272 510.272 0 0 0 1.728 512z" fill="#C3E9FF" p-id="4011"></path><path d="M787.968 484.992s-103.872 146.112-118.336 164.992c-14.464 18.944-26.56 29.888-49.728 29.888H542.528v69.056c0 13.824-12.672 18.368-16.448 18.368s-11.2-1.216-14.72-3.52l-49.92-44.928-47.36 44.928a21.12 21.12 0 0 1-21.12 1.344c-6.656-3.392-10.816-8.896-10.816-16.192V599.488c0-52.032 42.688-56.128 42.688-56.128h143.744c-29.568 12.672-26.688 39.168-26.688 67.968h67.136l136.704-174.656h16.064c17.792 0 40.832 18.368 26.176 48.32z m-408.32-1.088h199.296a37.952 37.952 0 0 0 28.864-13.184l158.912-152.768c10.88-13.568 15.936-47.616-24.832-47.616s-189.184 0.448-234.304 0.448c-15.808 0-59.776-1.728-93.824 33.088-24.448 24.96-163.392 112-178.048 206.4-5.312 21.12-5.952 43.328-0.832 64.512 18.944 83.776 93.184 111.04 126.912 113.088V610.112c-5.376-0.704-4.608-0.64-9.664-2.496a65.6 65.6 0 0 1-43.584-48.704c-12.096-60.736 44.928-75.008 71.104-75.008z" fill="#006FD3" p-id="4012"></path><path d="M542.336 789.888H372.544V518.784l209.024 20.8-39.232 62.4z" fill="#59A3E9" p-id="4013"></path></svg>