<svg t="1747736763383" class="icon" viewBox="0 0 1024 1024" version="1.1" xmlns="http://www.w3.org/2000/svg" p-id="15063" width="200" height="200"><path d="M512.6656 508.0576m-450.816 0a450.816 450.816 0 1 0 901.632 0 450.816 450.816 0 1 0-901.632 0Z" fill="#FFF7DC" p-id="15064"></path><path d="M636.6208 211.2512H314.9312a80.0256 80.0256 0 0 0-80.0256 80.0256v434.7392a80.0256 80.0256 0 0 0 80.0256 80.0256h282.9312A186.5216 186.5216 0 0 1 716.8 477.4912V291.2768a80.0256 80.0256 0 0 0-80.1792-80.0256z m-168.2432 424.2432H357.0688a35.84 35.84 0 1 1 0-71.68h111.3088a35.84 35.84 0 1 1 0 71.68z m52.5824-118.7328h-163.84a35.84 35.84 0 1 1 0-71.68h163.84a35.84 35.84 0 0 1 0 71.68z m73.5744-118.784H357.0688a35.84 35.84 0 1 1 0-71.68h237.4656a35.84 35.84 0 0 1 0 71.68z" fill="#FF8E12" p-id="15065"></path><path d="M718.848 535.296a128.768 128.768 0 1 0 128.768 128.7168 128.7168 128.7168 0 0 0-128.768-128.7168z m53.3504 184.32h-65.9968a30.72 30.72 0 0 1-30.72-30.72v-77.7216a30.72 30.72 0 0 1 61.44 0v46.7456h35.2768a30.72 30.72 0 0 1 0 61.44z" fill="#FF8E12" p-id="15066"></path><path d="M590.08 664.0128a128 128 0 0 0 6.2464 39.5776 451.9424 451.9424 0 0 0 79.1552-70.3488v-22.0672a30.72 30.72 0 0 1 30.72-30.72 31.3856 31.3856 0 0 1 8.8576 1.28 437.0944 437.0944 0 0 0 25.9072-44.544 131.1232 131.1232 0 0 0-22.1184-1.8944 128.7168 128.7168 0 0 0-128.768 128.7168z" fill="#FCA315" p-id="15067"></path><path d="M716.8 477.4912V291.2768a80.0256 80.0256 0 0 0-80.0256-80.0256H314.9312a80.0256 80.0256 0 0 0-80.0256 80.0256v434.7392a79.8208 79.8208 0 0 0 17.8176 50.2784 452.1984 452.1984 0 0 0 85.9136 8.192 448.3072 448.3072 0 0 0 207.2064-50.3808A186.624 186.624 0 0 1 716.8 477.4912zM357.0688 326.2976h237.4656a35.84 35.84 0 0 1 0 71.68H357.0688a35.84 35.84 0 1 1 0-71.68z m111.3088 309.1968H357.0688a35.84 35.84 0 1 1 0-71.68h111.3088a35.84 35.84 0 1 1 0 71.68z m52.5824-118.7328h-163.84a35.84 35.84 0 1 1 0-71.68h163.84a35.84 35.84 0 0 1 0 71.68z" fill="#FCA315" p-id="15068"></path><path d="M323.1744 611.3792a37.0176 37.0176 0 0 1-1.9456-11.7248 35.84 35.84 0 0 1 35.84-35.84h84.0704a448.9216 448.9216 0 0 0 66.56-47.0528H357.0688a35.84 35.84 0 1 1 0-71.68h163.84a35.84 35.84 0 0 1 34.0992 24.7808 449.28 449.28 0 0 0 52.7872-74.496 34.8672 34.8672 0 0 1-13.312 2.6112H357.0688a35.84 35.84 0 1 1 0-71.68h237.4656a35.84 35.84 0 0 1 34.56 26.4704 448.3584 448.3584 0 0 0 35.0208-136.6016 80.2816 80.2816 0 0 0-27.4944-5.12H314.9312a80.0256 80.0256 0 0 0-80.0256 80.2304v332.8a450.56 450.56 0 0 0 88.2688-12.6976z" fill="#FCB138" p-id="15069"></path><path d="M343.04 395.0592a35.84 35.84 0 0 1 14.1312-68.7616h69.888A451.4816 451.4816 0 0 0 507.392 211.2512H314.9312a80.0256 80.0256 0 0 0-80.0256 80.0256v153.6A446.7712 446.7712 0 0 0 343.04 395.0592z" fill="#FFC65E" p-id="15070"></path></svg>