<svg t="1747736852986" class="icon" viewBox="0 0 1027 1024" version="1.1" xmlns="http://www.w3.org/2000/svg" p-id="16426" width="200" height="200"><path d="M143.260206 140.709908m202.471467 0l381.103194 0q202.471467 0 202.471468 202.471467l0 381.103195q0 202.471467-202.471468 202.471467l-381.103194 0q-202.471467 0-202.471467-202.471467l0-381.103195q0-202.471467 202.471467-202.471467Z" fill="#F48134" p-id="16427"></path><path d="M755.331673 686.36275c-9.425014-52.890958-47.23595-90.48013-100.903086-111.991337a198.036167 198.036167 0 0 1-40.693882-21.067677 131.728424 131.728424 0 0 0 35.925934-177.41202A45.794478 45.794478 0 0 0 643.118571 365.91229a131.950189 131.950189 0 1 0-181.958203 186.726151c-6.209421 6.320303-19.293557 12.197076-43.133297 22.176502-50.451543 21.511207-91.256308 62.094207-100.792204 111.991337a33.264754 33.264754 0 0 0 31.379751 37.256525h375.115539a33.264754 33.264754 0 0 0 31.601516-37.700055z" fill="#FFFFFF" p-id="16428"></path><path d="M689.689226 648.108284m-82.940119 0a82.940119 82.940119 0 1 0 165.880238 0 82.940119 82.940119 0 1 0-165.880238 0Z" fill="#FFFFFF" p-id="16429"></path><path d="M689.689226 736.370763a88.70601 88.70601 0 1 1 88.70601-88.706009 88.70601 88.70601 0 0 1-88.70601 88.706009z m0-165.769355a77.617759 77.617759 0 1 0 77.617758 77.617758 77.617759 77.617759 0 0 0-77.617758-77.617758z" fill="#F48134" p-id="16430"></path><path d="M684.366865 614.84353v13.305902a2.66118 2.66118 0 0 0 2.66118 2.66118h50.451544a5.655008 5.655008 0 0 1 5.655008 5.655008v3.437358a5.655008 5.655008 0 0 1-5.655008 5.655008h-90.812778a2.66118 2.66118 0 0 1-1.885003-4.546183l30.049161-30.049161a5.544126 5.544126 0 0 1 9.535896 3.880888zM696.342177 674.830969h-50.562426a5.655008 5.655008 0 0 1-5.544126-5.655008V665.295073a5.655008 5.655008 0 0 1 5.544126-5.655008h90.92366a2.66118 2.66118 0 0 1 1.885003 4.546183l-30.049161 30.492691a5.655008 5.655008 0 0 1-9.535896-3.991771V677.492149a2.66118 2.66118 0 0 0-2.66118-2.66118z" fill="#F48134" p-id="16431"></path></svg>